<svg width="36" height="36" viewBox="0 0 36 36" fill="none" xmlns="http://www.w3.org/2000/svg">
    <path d="M10.2203 24.3884C8.56788 24.3884 7.16356 23.8114 6.00736 22.6573C4.85117 21.5022 4.27307 20.0995 4.27307 18.4491C4.27307 16.7988 4.85011 15.395 6.00417 14.2377C7.15824 13.0773 8.56098 12.4971 10.2124 12.4971C11.8617 12.4971 13.266 13.0752 14.4254 14.2314C15.5847 15.3886 16.1644 16.7929 16.1644 18.4443C16.1644 19.3051 15.9971 20.1181 15.6623 20.8832C15.3276 21.6504 14.8308 22.2881 14.1719 22.796H22.5724C21.9135 22.2881 21.4167 21.6504 21.082 20.8832C20.7472 20.1181 20.5799 19.3051 20.5799 18.4443C20.5799 16.7929 21.1569 15.3886 22.311 14.2314C23.4661 13.0752 24.8688 12.4971 26.5192 12.4971C28.1684 12.4971 29.5733 13.0746 30.7338 14.2298C31.8931 15.3849 32.4728 16.7876 32.4728 18.438C32.4728 20.0883 31.8947 21.4926 30.7385 22.651C29.5823 23.8114 28.178 24.3916 26.5255 24.3916L10.2203 24.3884ZM10.2203 22.7944C11.4382 22.7944 12.4679 22.3741 13.3096 21.5336C14.1512 20.693 14.572 19.6632 14.572 18.4443C14.572 17.2255 14.1517 16.1947 13.3111 15.352C12.4695 14.5103 11.4392 14.0895 10.2203 14.0895C9.00146 14.0895 7.97119 14.5103 7.12955 15.352C6.28791 16.1936 5.86709 17.2233 5.86709 18.4412C5.86709 19.6601 6.28791 20.6908 7.12955 21.5336C7.97013 22.3752 8.99986 22.796 10.2188 22.796M26.5255 22.796C27.7455 22.796 28.7763 22.3752 29.6179 21.5336C30.4596 20.6919 30.8804 19.6622 30.8804 18.4443C30.8804 17.2255 30.4596 16.1947 29.6179 15.352C28.7774 14.5103 27.7476 14.0895 26.5287 14.0895C25.3098 14.0895 24.279 14.5103 23.4363 15.352C22.5958 16.1936 22.1755 17.2233 22.1755 18.4412C22.1755 19.6601 22.5958 20.6908 23.4363 21.5336C24.278 22.3752 25.3067 22.796 26.5255 22.796Z" fill="#373BF9"/>
    <path d="M10.2203 22.7944C11.4382 22.7944 12.4679 22.3741 13.3096 21.5336C14.1512 20.693 14.572 19.6632 14.572 18.4443C14.572 17.2255 14.1517 16.1947 13.3111 15.352C12.4695 14.5103 11.4392 14.0895 10.2203 14.0895C9.00146 14.0895 7.97119 14.5103 7.12955 15.352C6.28791 16.1936 5.86709 17.2233 5.86709 18.4412C5.86709 19.6601 6.28791 20.6908 7.12955 21.5336C7.97013 22.3752 8.99986 22.796 10.2188 22.796M10.2203 24.3884C8.56788 24.3884 7.16356 23.8114 6.00736 22.6573C4.85117 21.5022 4.27307 20.0995 4.27307 18.4491C4.27307 16.7988 4.85011 15.395 6.00417 14.2377C7.15824 13.0773 8.56098 12.4971 10.2124 12.4971C11.8617 12.4971 13.266 13.0752 14.4254 14.2314C15.5847 15.3886 16.1644 16.7929 16.1644 18.4443C16.1644 19.3051 15.9971 20.1181 15.6623 20.8832C15.3276 21.6504 14.8308 22.2881 14.1719 22.796H22.5724C21.9135 22.2881 21.4167 21.6504 21.082 20.8832C20.7472 20.1181 20.5799 19.3051 20.5799 18.4443C20.5799 16.7929 21.1569 15.3886 22.311 14.2314C23.4661 13.0752 24.8688 12.4971 26.5192 12.4971C28.1684 12.4971 29.5733 13.0746 30.7338 14.2298C31.8931 15.3849 32.4728 16.7876 32.4728 18.438C32.4728 20.0883 31.8947 21.4926 30.7385 22.651C29.5823 23.8114 28.178 24.3916 26.5255 24.3916L10.2203 24.3884ZM26.5255 22.796C27.7455 22.796 28.7763 22.3752 29.6179 21.5336C30.4596 20.6919 30.8804 19.6622 30.8804 18.4443C30.8804 17.2255 30.4596 16.1947 29.6179 15.352C28.7774 14.5103 27.7476 14.0895 26.5287 14.0895C25.3098 14.0895 24.279 14.5103 23.4363 15.352C22.5958 16.1936 22.1755 17.2233 22.1755 18.4412C22.1755 19.6601 22.5958 20.6908 23.4363 21.5336C24.278 22.3752 25.3067 22.796 26.5255 22.796Z" stroke="#373BF9" stroke-width="0.234998"/>
</svg>
