<svg width="36" height="36" viewBox="0 0 36 36" fill="none" xmlns="http://www.w3.org/2000/svg">
    <path d="M11.7608 25.5549L9.67811 27.6916C9.3693 28.0084 9.01241 28.0811 8.60744 27.9098C8.20248 27.7384 8 27.427 8 26.9756V10.0263C8 9.4487 8.18863 8.96677 8.56589 8.58057C8.94315 8.19436 9.41289 8.00084 9.97511 8H28.0261C28.5883 8 29.0581 8.19352 29.4353 8.58057C29.8126 8.96761 30.0008 9.44953 30 10.0263V23.5298C30 24.1066 29.8118 24.5885 29.4353 24.9756C29.0589 25.3626 28.5891 25.5557 28.0261 25.5549H11.7608ZM11.2389 24.301H28.0261C28.2135 24.301 28.3858 24.2207 28.5431 24.0602C28.7004 23.8997 28.7786 23.7229 28.7778 23.5298V10.0251C28.7778 9.83281 28.6996 9.65601 28.5431 9.49467C28.3867 9.33334 28.2143 9.25309 28.0261 9.25392H9.97389C9.78648 9.25392 9.61415 9.33417 9.45689 9.49467C9.29963 9.65518 9.22141 9.83198 9.22222 10.0251V26.3637L11.2389 24.301Z" fill="#373BF9"/>
    <path fill-rule="evenodd" clip-rule="evenodd" d="M18.5 12.5C18.7092 12.5 18.8963 12.6302 18.9689 12.8264L19.3006 13.7226C19.7511 14.9407 19.9327 15.4008 20.2653 15.7334C20.5992 16.0674 21.0593 16.2489 22.2773 16.6993L23.1736 17.0311C23.3698 17.1037 23.5 17.2908 23.5 17.5C23.5 17.7092 23.3698 17.8963 23.1736 17.9689L22.2774 18.3006C21.0593 18.7511 20.5992 18.9327 20.2666 19.2653C19.9326 19.5992 19.7511 20.0593 19.3007 21.2773L18.9689 22.1736C18.8963 22.3698 18.7092 22.5 18.5 22.5C18.2908 22.5 18.1037 22.3698 18.0311 22.1736L17.6994 21.2774C17.2489 20.0593 17.0673 19.5992 16.7347 19.2666C16.4008 18.9326 15.9407 18.7511 14.7227 18.3007L13.8264 17.9689C13.6302 17.8963 13.5 17.7092 13.5 17.5C13.5 17.2908 13.6302 17.1037 13.8264 17.0311L14.7226 16.6994C15.9407 16.2489 16.4008 16.0673 16.7334 15.7347C17.0674 15.4008 17.2489 14.9407 17.6993 13.7227L18.0311 12.8264C18.1037 12.6302 18.2908 12.5 18.5 12.5ZM18.5 14.4405C18.1574 15.3623 17.9057 15.9767 17.4406 16.4418C16.9765 16.9059 16.3621 17.1574 15.4405 17.5C16.3623 17.8426 16.9767 18.0943 17.4418 18.5594C17.9059 19.0235 18.1574 19.6379 18.5 20.5595C18.8426 19.6377 19.0943 19.0233 19.5594 18.5582C20.0235 18.0941 20.6379 17.8426 21.5595 17.5C20.6377 17.1574 20.0233 16.9057 19.5582 16.4406C19.0941 15.9765 18.8426 15.3621 18.5 14.4405Z" fill="#373BF9"/>
    <path fill-rule="evenodd" clip-rule="evenodd" d="M22.5001 10.5996C22.6675 10.5996 22.8171 10.7038 22.8752 10.8608L22.9858 11.1595C23.1434 11.5856 23.1872 11.6795 23.2535 11.7458C23.3202 11.8125 23.4142 11.8564 23.8401 12.0139L24.139 12.1245C24.2959 12.1826 24.4001 12.3322 24.4001 12.4996C24.4001 12.667 24.2959 12.8166 24.139 12.8747L23.8402 12.9853C23.4141 13.1429 23.3202 13.1867 23.2539 13.253C23.1872 13.3198 23.1434 13.4137 22.9858 13.8396L22.8752 14.1385C22.8171 14.2954 22.6675 14.3996 22.5001 14.3996C22.3327 14.3996 22.1831 14.2954 22.125 14.1385L22.0144 13.8398C21.8568 13.4136 21.813 13.3197 21.7467 13.2535C21.6799 13.1867 21.586 13.1429 21.1601 12.9853L20.8612 12.8747C20.7043 12.8166 20.6001 12.667 20.6001 12.4996C20.6001 12.3322 20.7043 12.1826 20.8612 12.1245L21.16 12.0139C21.5861 11.8563 21.68 11.8125 21.7463 11.7462C21.813 11.6795 21.8568 11.5855 22.0144 11.1596L22.125 10.8608C22.1831 10.7038 22.3327 10.5996 22.5001 10.5996ZM22.5001 12.0625C22.4471 12.1542 22.3863 12.2375 22.3119 12.3119C22.2377 12.3861 22.1545 12.4467 22.063 12.4996C22.1546 12.5526 22.238 12.6134 22.3124 12.6878C22.3866 12.762 22.4472 12.8452 22.5001 12.9367C22.5531 12.8451 22.6139 12.7617 22.6883 12.6873C22.7624 12.6131 22.8457 12.5525 22.9372 12.4996C22.8456 12.4466 22.7622 12.3858 22.6878 12.3115C22.6136 12.2373 22.553 12.154 22.5001 12.0625Z" fill="#373BF9"/>
    <path d="M11.7608 25.5549V25.4549H11.7186L11.6892 25.4851L11.7608 25.5549ZM9.67811 27.6916L9.74972 27.7614L9.67811 27.6916ZM8 26.9756H7.9H8ZM9.97511 8V7.9L9.97496 7.9L9.97511 8ZM30 10.0263L29.9 10.0262V10.0263H30ZM28.0261 25.5549L28.0263 25.4549H28.0261V25.5549ZM11.2389 24.301V24.201H11.1968L11.1674 24.2311L11.2389 24.301ZM28.7778 23.5298H28.6778L28.6778 23.5302L28.7778 23.5298ZM28.0261 9.25392V9.35392L28.0266 9.35392L28.0261 9.25392ZM9.22222 10.0251H9.32222L9.32222 10.0247L9.22222 10.0251ZM9.22222 26.3637H9.12222V26.609L9.29373 26.4336L9.22222 26.3637ZM18.9689 12.8264L19.0627 12.7917L18.9689 12.8264ZM19.3006 13.7226L19.3944 13.6879L19.3944 13.6879L19.3006 13.7226ZM20.2653 15.7334L20.336 15.6627H20.336L20.2653 15.7334ZM22.2773 16.6993L22.312 16.6055L22.312 16.6055L22.2773 16.6993ZM23.1736 17.0311L23.2083 16.9373L23.1736 17.0311ZM23.1736 17.9689L23.2083 18.0627L23.1736 17.9689ZM22.2774 18.3006L22.3121 18.3944L22.3121 18.3944L22.2774 18.3006ZM20.2666 19.2653L20.3373 19.336L20.3373 19.336L20.2666 19.2653ZM19.3007 21.2773L19.3945 21.312L19.3945 21.312L19.3007 21.2773ZM18.9689 22.1736L19.0627 22.2083L18.9689 22.1736ZM18.0311 22.1736L17.9373 22.2083L18.0311 22.1736ZM17.6994 21.2774L17.6056 21.3121L17.6056 21.3121L17.6994 21.2774ZM16.7347 19.2666L16.664 19.3373L16.664 19.3373L16.7347 19.2666ZM14.7227 18.3007L14.688 18.3945L14.688 18.3945L14.7227 18.3007ZM13.8264 17.9689L13.7917 18.0627L13.8264 17.9689ZM13.8264 17.0311L13.7917 16.9373L13.8264 17.0311ZM14.7226 16.6994L14.6879 16.6056L14.6879 16.6056L14.7226 16.6994ZM16.7334 15.7347L16.6627 15.664H16.6627L16.7334 15.7347ZM17.6993 13.7227L17.6055 13.688L17.6055 13.688L17.6993 13.7227ZM18.0311 12.8264L17.9373 12.7917L18.0311 12.8264ZM18.5 14.4405L18.5937 14.4056C18.5792 14.3665 18.5418 14.3405 18.5 14.3405C18.4582 14.3405 18.4208 14.3665 18.4063 14.4056L18.5 14.4405ZM15.4405 17.5L15.4056 17.4063C15.3665 17.4208 15.3405 17.4582 15.3405 17.5C15.3405 17.5418 15.3665 17.5792 15.4056 17.5937L15.4405 17.5ZM17.4418 18.5594L17.5125 18.4887L17.4418 18.5594ZM18.5 20.5595L18.4063 20.5944C18.4208 20.6335 18.4582 20.6595 18.5 20.6595C18.5418 20.6595 18.5792 20.6335 18.5937 20.5944L18.5 20.5595ZM21.5595 17.5L21.5944 17.5937C21.6335 17.5792 21.6595 17.5418 21.6595 17.5C21.6595 17.4582 21.6335 17.4208 21.5944 17.4063L21.5595 17.5ZM19.5582 16.4406L19.4874 16.5113H19.4874L19.5582 16.4406ZM22.8752 10.8608L22.7814 10.8955L22.8752 10.8608ZM22.9858 11.1595L23.0796 11.1248L23.0796 11.1248L22.9858 11.1595ZM23.2535 11.7458L23.1828 11.8165L23.2535 11.7458ZM23.8401 12.0139L23.8748 11.9201L23.8748 11.9201L23.8401 12.0139ZM24.139 12.1245L24.1042 12.2183L24.139 12.1245ZM24.139 12.8747L24.1042 12.781L24.139 12.8747ZM23.8402 12.9853L23.8749 13.0791L23.875 13.0791L23.8402 12.9853ZM22.9858 13.8396L23.0796 13.8743L23.0796 13.8743L22.9858 13.8396ZM22.8752 14.1385L22.969 14.1732L22.8752 14.1385ZM22.125 14.1385L22.2188 14.1038V14.1038L22.125 14.1385ZM22.0144 13.8398L21.9206 13.8744L21.9206 13.8745L22.0144 13.8398ZM21.7467 13.2535L21.8174 13.1827H21.8174L21.7467 13.2535ZM21.1601 12.9853L21.1254 13.0791L21.1254 13.0791L21.1601 12.9853ZM20.8612 12.8747L20.896 12.781L20.8612 12.8747ZM20.8612 12.1245L20.8265 12.0307L20.8612 12.1245ZM21.16 12.0139L21.1253 11.9201L21.1252 11.9201L21.16 12.0139ZM21.7463 11.7462L21.817 11.8169H21.817L21.7463 11.7462ZM22.0144 11.1596L21.9206 11.1249L21.9206 11.1249L22.0144 11.1596ZM22.125 10.8608L22.2188 10.8955L22.125 10.8608ZM22.3119 12.3119L22.3826 12.3826L22.3119 12.3119ZM22.5001 12.0625L22.5866 12.0125C22.5688 11.9816 22.5358 11.9625 22.5001 11.9625C22.4644 11.9625 22.4314 11.9816 22.4135 12.0125L22.5001 12.0625ZM22.063 12.4996L22.013 12.4131C21.9821 12.4309 21.963 12.4639 21.963 12.4996C21.963 12.5353 21.9821 12.5683 22.013 12.5862L22.063 12.4996ZM22.3124 12.6878L22.3831 12.6171H22.3831L22.3124 12.6878ZM22.5001 12.9367L22.4136 12.9867C22.4314 13.0176 22.4644 13.0367 22.5001 13.0367C22.5358 13.0367 22.5688 13.0176 22.5867 12.9867L22.5001 12.9367ZM22.6883 12.6873L22.6175 12.6166L22.6883 12.6873ZM22.9372 12.4996L22.9872 12.5862C23.0181 12.5683 23.0372 12.5353 23.0372 12.4996C23.0372 12.4639 23.0181 12.4309 22.9872 12.413L22.9372 12.4996ZM22.6878 12.3115L22.6171 12.3822H22.6171L22.6878 12.3115ZM11.6892 25.4851L9.6065 27.6218L9.74972 27.7614L11.8324 25.6247L11.6892 25.4851ZM9.6065 27.6218C9.46305 27.769 9.31378 27.8542 9.15887 27.8858C9.00401 27.9173 8.83421 27.8971 8.64642 27.8177L8.56847 28.0019C8.78564 28.0938 8.99677 28.1229 9.1988 28.0817C9.40078 28.0406 9.58436 27.931 9.74972 27.7614L9.6065 27.6218ZM8.64642 27.8177C8.45886 27.7383 8.32419 27.6293 8.2357 27.4932C8.14708 27.3569 8.1 27.1861 8.1 26.9756H7.9C7.9 27.2165 7.95416 27.4271 8.06803 27.6022C8.18201 27.7775 8.35107 27.9099 8.56847 28.0019L8.64642 27.8177ZM8.1 26.9756V10.0263H7.9V26.9756H8.1ZM8.1 10.0263C8.1 9.4728 8.27977 9.01658 8.63742 8.65044L8.49435 8.51069C8.09749 8.91697 7.9 9.4246 7.9 10.0263H8.1ZM8.63742 8.65044C8.99505 8.28433 9.43867 8.1008 9.97526 8.1L9.97496 7.9C9.38711 7.90087 8.89125 8.10438 8.49435 8.51069L8.63742 8.65044ZM9.97511 8.1H28.0261V7.9H9.97511V8.1ZM28.0261 8.1C28.5626 8.1 29.0061 8.28348 29.3637 8.65037L29.5069 8.51077C29.11 8.10356 28.6141 7.9 28.0261 7.9V8.1ZM29.3637 8.65037C29.7214 9.01736 29.9008 9.47358 29.9 10.0262L30.1 10.0265C30.1008 9.42549 29.9037 8.91786 29.5069 8.51077L29.3637 8.65037ZM29.9 10.0263V23.5298H30.1V10.0263H29.9ZM29.9 23.5298C29.9 24.0825 29.7206 24.5389 29.3636 24.9059L29.507 25.0453C29.9029 24.6382 30.1 24.1307 30.1 23.5298H29.9ZM29.3636 24.9059C29.0069 25.2726 28.5635 25.4557 28.0263 25.4549L28.026 25.6549C28.6148 25.6558 29.1108 25.4527 29.507 25.0453L29.3636 24.9059ZM28.0261 25.4549H11.7608V25.6549H28.0261V25.4549ZM11.2389 24.401H28.0261V24.201H11.2389V24.401ZM28.0261 24.401C28.2456 24.401 28.4425 24.3058 28.6145 24.1302L28.4717 23.9902C28.3292 24.1356 28.1814 24.201 28.0261 24.201V24.401ZM28.6145 24.1302C28.787 23.9542 28.8787 23.7531 28.8778 23.5294L28.6778 23.5302C28.6785 23.6927 28.6138 23.8452 28.4717 23.9902L28.6145 24.1302ZM28.8778 23.5298V10.0251H28.6778V23.5298H28.8778ZM28.8778 10.0251C28.8778 9.80247 28.7862 9.60167 28.6149 9.42506L28.4713 9.56429C28.613 9.71035 28.6778 9.86316 28.6778 10.0251H28.8778ZM28.6149 9.42506C28.4435 9.24828 28.2463 9.15294 28.0257 9.15392L28.0266 9.35392C28.1824 9.35323 28.3299 9.4184 28.4713 9.56429L28.6149 9.42506ZM28.0261 9.15392H9.97389V9.35392H28.0261V9.15392ZM9.97389 9.15392C9.75436 9.15392 9.55751 9.24909 9.38546 9.42469L9.52832 9.56466C9.67079 9.41925 9.8186 9.35392 9.97389 9.35392V9.15392ZM9.38546 9.42469C9.21303 9.60067 9.12128 9.80178 9.12222 10.0255L9.32222 10.0247C9.32154 9.86218 9.38622 9.70968 9.52832 9.56466L9.38546 9.42469ZM9.12222 10.0251V26.3637H9.32222V10.0251H9.12222ZM9.29373 26.4336L11.3104 24.3709L11.1674 24.2311L9.15072 26.2938L9.29373 26.4336ZM9.32222 24.301V9.25392H9.12222V24.301H9.32222ZM19.0627 12.7917C18.9755 12.5563 18.751 12.4 18.5 12.4V12.6C18.6674 12.6 18.817 12.7042 18.8751 12.8611L19.0627 12.7917ZM19.3944 13.6879L19.0627 12.7917L18.8751 12.8611L19.2068 13.7573L19.3944 13.6879ZM20.336 15.6627C20.1809 15.5076 20.0583 15.3207 19.9179 15.018C19.7766 14.7135 19.6201 14.2981 19.3944 13.6879L19.2068 13.7573C19.4316 14.3652 19.5911 14.7889 19.7364 15.1022C19.8826 15.4172 20.0171 15.6267 20.1946 15.8042L20.336 15.6627ZM22.312 16.6055C21.7018 16.3799 21.2865 16.2234 20.9819 16.082C20.679 15.9414 20.4918 15.8185 20.336 15.6627L20.1946 15.8042C20.3727 15.9823 20.5825 16.1171 20.8977 16.2634C21.2111 16.4089 21.6348 16.5683 22.2426 16.7931L22.312 16.6055ZM23.6 17.5C23.6 17.249 23.4437 17.0245 23.2083 16.9373L23.1389 17.1249C23.2958 17.183 23.4 17.3326 23.4 17.5H23.6ZM23.2083 18.0627C23.4437 17.9755 23.6 17.751 23.6 17.5H23.4C23.4 17.6674 23.2958 17.817 23.1389 17.8751L23.2083 18.0627ZM20.3373 19.336C20.4924 19.1809 20.6793 19.0583 20.982 18.9179C21.2865 18.7766 21.7019 18.6201 22.3121 18.3944L22.2427 18.2068C21.6348 18.4316 21.2111 18.5911 20.8978 18.7364C20.5828 18.8826 20.3733 19.0171 20.1958 19.1946L20.3373 19.336ZM19.3945 21.312C19.6201 20.7018 19.7766 20.2865 19.918 19.9819C20.0585 19.679 20.1815 19.4918 20.3373 19.336L20.1958 19.1946C20.0177 19.3727 19.8829 19.5825 19.7366 19.8977C19.5911 20.2111 19.4317 20.6348 19.2069 21.2426L19.3945 21.312ZM18.5 22.6C18.751 22.6 18.9755 22.4437 19.0627 22.2083L18.8751 22.1389C18.817 22.2958 18.6674 22.4 18.5 22.4V22.6ZM17.9373 22.2083C18.0245 22.4437 18.249 22.6 18.5 22.6V22.4C18.3326 22.4 18.183 22.2958 18.1249 22.1389L17.9373 22.2083ZM16.664 19.3373C16.8191 19.4924 16.9417 19.6793 17.0821 19.982C17.2234 20.2865 17.3799 20.7019 17.6056 21.3121L17.7932 21.2427C17.5684 20.6348 17.4089 20.2111 17.2636 19.8978C17.1174 19.5828 16.9829 19.3733 16.8054 19.1958L16.664 19.3373ZM14.688 18.3945C15.2982 18.6201 15.7135 18.7766 16.0181 18.918C16.321 19.0585 16.5082 19.1815 16.664 19.3373L16.8054 19.1958C16.6273 19.0177 16.4175 18.8829 16.1023 18.7366C15.7889 18.5911 15.3652 18.4317 14.7574 18.2069L14.688 18.3945ZM13.7917 18.0627L14.688 18.3945L14.7574 18.2069L13.8611 17.8751L13.7917 18.0627ZM13.4 17.5C13.4 17.751 13.5563 17.9755 13.7917 18.0627L13.8611 17.8751C13.7042 17.817 13.6 17.6674 13.6 17.5H13.4ZM13.7917 16.9373C13.5563 17.0245 13.4 17.249 13.4 17.5H13.6C13.6 17.3326 13.7042 17.183 13.8611 17.1249L13.7917 16.9373ZM16.6627 15.664C16.5076 15.8191 16.3207 15.9417 16.018 16.0821C15.7135 16.2234 15.2981 16.3799 14.6879 16.6056L14.7573 16.7932C15.3652 16.5684 15.7889 16.4089 16.1022 16.2636C16.4172 16.1174 16.6267 15.9829 16.8042 15.8054L16.6627 15.664ZM17.6055 13.688C17.3799 14.2982 17.2234 14.7135 17.082 15.0181C16.9414 15.321 16.8185 15.5082 16.6627 15.664L16.8042 15.8054C16.9823 15.6273 17.1171 15.4175 17.2634 15.1023C17.4089 14.7889 17.5683 14.3652 17.7931 13.7574L17.6055 13.688ZM18.5 12.4C18.249 12.4 18.0245 12.5563 17.9373 12.7917L18.1249 12.8611C18.183 12.7042 18.3326 12.6 18.5 12.6V12.4ZM17.5113 16.5125C17.9943 16.0295 18.2523 15.3938 18.5937 14.4753L18.4063 14.4056C18.0624 15.3308 17.8171 15.9239 17.3698 16.3711L17.5113 16.5125ZM15.4753 17.5937C16.3936 17.2524 17.0293 16.9945 17.5113 16.5125L17.3698 16.3711C16.9237 16.8173 16.3307 17.0624 15.4056 17.4063L15.4753 17.5937ZM17.5125 18.4887C17.0295 18.0057 16.3938 17.7477 15.4753 17.4063L15.4056 17.5937C16.3308 17.9376 16.9239 18.1829 17.3711 18.6302L17.5125 18.4887ZM18.5937 20.5247C18.2524 19.6064 17.9945 18.9707 17.5125 18.4887L17.3711 18.6302C17.8173 19.0763 18.0624 19.6693 18.4063 20.5944L18.5937 20.5247ZM19.4887 18.4874C19.0057 18.9705 18.7477 19.6062 18.4063 20.5247L18.5937 20.5944C18.9376 19.6692 19.1829 19.0761 19.6302 18.6289L19.4887 18.4874ZM21.5247 17.4063C20.6064 17.7476 19.9707 18.0055 19.4887 18.4874L19.6302 18.6289C20.0763 18.1827 20.6693 17.9376 21.5944 17.5937L21.5247 17.4063ZM19.4874 16.5113C19.9705 16.9943 20.6062 17.2523 21.5247 17.5937L21.5944 17.4063C20.6692 17.0624 20.0761 16.8171 19.6289 16.3698L19.4874 16.5113ZM18.4063 14.4753C18.7476 15.3936 19.0055 16.0293 19.4874 16.5113L19.6289 16.3698C19.1827 15.9237 18.9376 15.3307 18.5937 14.4056L18.4063 14.4753ZM23.2083 16.9373L22.312 16.6055L22.2426 16.7931L23.1389 17.1249L23.2083 16.9373ZM22.3121 18.3944L23.2083 18.0627L23.1389 17.8751L22.2427 18.2068L22.3121 18.3944ZM19.0627 22.2083L19.3945 21.312L19.2069 21.2426L18.8751 22.1389L19.0627 22.2083ZM17.6056 21.3121L17.9373 22.2083L18.1249 22.1389L17.7932 21.2427L17.6056 21.3121ZM14.6879 16.6056L13.7917 16.9373L13.8611 17.1249L14.7573 16.7932L14.6879 16.6056ZM17.9373 12.7917L17.6055 13.688L17.7931 13.7574L18.1249 12.8611L17.9373 12.7917ZM22.969 10.826C22.8964 10.6298 22.7093 10.4996 22.5001 10.4996V10.6996C22.6256 10.6996 22.7379 10.7778 22.7814 10.8955L22.969 10.826ZM23.3242 11.6751C23.3027 11.6535 23.2811 11.6252 23.2448 11.5459C23.2077 11.4649 23.1586 11.3384 23.0796 11.1248L22.892 11.1942C22.9706 11.4066 23.0222 11.5402 23.063 11.6292C23.1046 11.72 23.1381 11.7717 23.1828 11.8165L23.3242 11.6751ZM23.8748 11.9201C23.6612 11.8411 23.5348 11.792 23.4538 11.7549C23.3745 11.7185 23.346 11.6969 23.3242 11.6751L23.1828 11.8165C23.2277 11.8614 23.2796 11.895 23.3704 11.9367C23.4595 11.9775 23.593 12.0291 23.8054 12.1077L23.8748 11.9201ZM24.5001 12.4996C24.5001 12.2904 24.3699 12.1033 24.1737 12.0307L24.1042 12.2183C24.222 12.2618 24.3001 12.3741 24.3001 12.4996H24.5001ZM24.1737 12.9685C24.3699 12.8959 24.5001 12.7088 24.5001 12.4996H24.3001C24.3001 12.6251 24.222 12.7374 24.1042 12.781L24.1737 12.9685ZM23.3246 13.3237C23.3462 13.3022 23.3745 13.2806 23.4538 13.2443C23.5348 13.2072 23.6613 13.1581 23.8749 13.0791L23.8056 12.8915C23.5931 12.9701 23.4595 13.0217 23.3705 13.0625C23.2797 13.1041 23.228 13.1376 23.1832 13.1823L23.3246 13.3237ZM23.0796 13.8743C23.1586 13.6608 23.2077 13.5344 23.2448 13.4533C23.2812 13.3741 23.3028 13.3455 23.3246 13.3237L23.1832 13.1823C23.1383 13.2272 23.1047 13.2791 23.063 13.37C23.0222 13.459 22.9706 13.5926 22.892 13.8049L23.0796 13.8743ZM22.5001 14.4996C22.7093 14.4996 22.8964 14.3694 22.969 14.1732L22.7814 14.1038C22.7379 14.2215 22.6256 14.2996 22.5001 14.2996V14.4996ZM22.0312 14.1732C22.1038 14.3694 22.2909 14.4996 22.5001 14.4996V14.2996C22.3746 14.2996 22.2623 14.2215 22.2188 14.1038L22.0312 14.1732ZM21.676 13.3242C21.6975 13.3457 21.7191 13.374 21.7554 13.4533C21.7925 13.5343 21.8416 13.6608 21.9206 13.8744L22.1082 13.8051C22.0296 13.5926 21.978 13.459 21.9372 13.37C21.8956 13.2792 21.8621 13.2275 21.8174 13.1827L21.676 13.3242ZM21.1254 13.0791C21.3389 13.1581 21.4654 13.2072 21.5464 13.2443C21.6257 13.2807 21.6542 13.3024 21.676 13.3242L21.8174 13.1827C21.7725 13.1378 21.7206 13.1042 21.6298 13.0625C21.5407 13.0217 21.4071 12.9701 21.1948 12.8916L21.1254 13.0791ZM20.5001 12.4996C20.5001 12.7088 20.6303 12.8959 20.8265 12.9685L20.896 12.781C20.7782 12.7374 20.7001 12.6251 20.7001 12.4996H20.5001ZM20.8265 12.0307C20.6303 12.1033 20.5001 12.2904 20.5001 12.4996H20.7001C20.7001 12.3741 20.7782 12.2618 20.896 12.2183L20.8265 12.0307ZM21.6755 11.6755C21.654 11.697 21.6257 11.7186 21.5464 11.7549C21.4654 11.792 21.3389 11.8411 21.1253 11.9201L21.1946 12.1077C21.4071 12.0291 21.5407 11.9775 21.6297 11.9367C21.7205 11.8951 21.7722 11.8616 21.817 11.8169L21.6755 11.6755ZM21.9206 11.1249C21.8416 11.3385 21.7925 11.4649 21.7554 11.5459C21.719 11.6252 21.6974 11.6537 21.6755 11.6755L21.817 11.8169C21.8619 11.772 21.8955 11.7202 21.9372 11.6293C21.978 11.5402 22.0296 11.4067 22.1081 11.1943L21.9206 11.1249ZM22.5001 10.4996C22.2909 10.4996 22.1038 10.6298 22.0312 10.826L22.2188 10.8955C22.2623 10.7778 22.3746 10.6996 22.5001 10.6996V10.4996ZM22.3826 12.3826C22.4643 12.3009 22.5302 12.2102 22.5866 12.1126L22.4135 12.0125C22.364 12.0981 22.3083 12.1741 22.2412 12.2412L22.3826 12.3826ZM22.1131 12.5862C22.2106 12.5298 22.3011 12.4641 22.3826 12.3826L22.2412 12.2412C22.1743 12.3081 22.0985 12.3636 22.013 12.4131L22.1131 12.5862ZM22.3831 12.6171C22.3014 12.5354 22.2107 12.4695 22.1131 12.4131L22.013 12.5862C22.0986 12.6357 22.1746 12.6914 22.2417 12.7585L22.3831 12.6171ZM22.5867 12.8866C22.5303 12.7891 22.4646 12.6986 22.3831 12.6171L22.2417 12.7585C22.3085 12.8254 22.3641 12.9012 22.4136 12.9867L22.5867 12.8866ZM22.6175 12.6166C22.5359 12.6983 22.47 12.789 22.4136 12.8866L22.5867 12.9867C22.6362 12.9011 22.6919 12.8251 22.759 12.758L22.6175 12.6166ZM22.8871 12.413C22.7896 12.4694 22.699 12.5351 22.6175 12.6166L22.759 12.758C22.8258 12.6912 22.9017 12.6356 22.9872 12.5862L22.8871 12.413ZM22.6171 12.3822C22.6988 12.4638 22.7895 12.5297 22.8871 12.5861L22.9872 12.413C22.9016 12.3635 22.8256 12.3078 22.7585 12.2407L22.6171 12.3822ZM22.4135 12.1126C22.4699 12.2101 22.5356 12.3007 22.6171 12.3822L22.7585 12.2407C22.6917 12.1739 22.6361 12.098 22.5866 12.0125L22.4135 12.1126ZM23.0796 11.1248L22.969 10.826L22.7814 10.8955L22.892 11.1942L23.0796 11.1248ZM24.1737 12.0307L23.8748 11.9201L23.8054 12.1077L24.1042 12.2183L24.1737 12.0307ZM23.875 13.0791L24.1737 12.9685L24.1042 12.781L23.8055 12.8915L23.875 13.0791ZM22.969 14.1732L23.0796 13.8743L22.8921 13.8049L22.7814 14.1038L22.969 14.1732ZM21.9206 13.8745L22.0312 14.1732L22.2188 14.1038L22.1082 13.805L21.9206 13.8745ZM20.8265 12.9685L21.1254 13.0791L21.1948 12.8916L20.896 12.781L20.8265 12.9685ZM21.1252 11.9201L20.8265 12.0307L20.896 12.2183L21.1947 12.1077L21.1252 11.9201ZM22.0312 10.826L21.9206 11.1249L22.1081 11.1943L22.2188 10.8955L22.0312 10.826Z" fill="#373BF9"/>
</svg>
