<svg width="36" height="36" viewBox="0 0 36 36" fill="none" xmlns="http://www.w3.org/2000/svg">
    <path d="M7.19995 7.19961C7.19995 6.24483 7.57924 5.32916 8.25437 4.65402C8.9295 3.97889 9.84517 3.59961 10.8 3.59961H25.2C26.1547 3.59961 27.0704 3.97889 27.7455 4.65402C28.4207 5.32916 28.8 6.24483 28.8 7.19961V24.989L27 26.807V7.19961C27 6.72222 26.8103 6.26438 26.4727 5.92682C26.1352 5.58925 25.6773 5.39961 25.2 5.39961H10.8C10.3226 5.39961 9.86472 5.58925 9.52716 5.92682C9.18959 6.26438 8.99995 6.72222 8.99995 7.19961V28.7996C8.99995 29.277 9.18959 29.7348 9.52716 30.0724C9.86472 30.41 10.3226 30.5996 10.8 30.5996H18.153C18.2808 30.9596 18.486 31.2998 18.7722 31.5896L19.566 32.3996H10.8C9.84517 32.3996 8.9295 32.0203 8.25437 31.3452C7.57924 30.6701 7.19995 29.7544 7.19995 28.7996V7.19961ZM14.4 9.89961C14.4 10.377 14.2103 10.8348 13.8727 11.1724C13.5352 11.51 13.0773 11.6996 12.6 11.6996C12.1226 11.6996 11.6647 11.51 11.3272 11.1724C10.9896 10.8348 10.8 10.377 10.8 9.89961C10.8 9.42222 10.9896 8.96438 11.3272 8.62682C11.6647 8.28925 12.1226 8.09961 12.6 8.09961C13.0773 8.09961 13.5352 8.28925 13.8727 8.62682C14.2103 8.96438 14.4 9.42222 14.4 9.89961ZM17.1 8.99961C16.8613 8.99961 16.6323 9.09443 16.4636 9.26321C16.2948 9.432 16.2 9.66091 16.2 9.89961C16.2 10.1383 16.2948 10.3672 16.4636 10.536C16.6323 10.7048 16.8613 10.7996 17.1 10.7996H24.3C24.5386 10.7996 24.7676 10.7048 24.9363 10.536C25.1051 10.3672 25.2 10.1383 25.2 9.89961C25.2 9.66091 25.1051 9.432 24.9363 9.26321C24.7676 9.09443 24.5386 8.99961 24.3 8.99961H17.1ZM17.1 16.1996C16.8613 16.1996 16.6323 16.2944 16.4636 16.4632C16.2948 16.632 16.2 16.8609 16.2 17.0996C16.2 17.3383 16.2948 17.5672 16.4636 17.736C16.6323 17.9048 16.8613 17.9996 17.1 17.9996H24.3C24.5386 17.9996 24.7676 17.9048 24.9363 17.736C25.1051 17.5672 25.2 17.3383 25.2 17.0996C25.2 16.8609 25.1051 16.632 24.9363 16.4632C24.7676 16.2944 24.5386 16.1996 24.3 16.1996H17.1ZM16.2 24.2996C16.2 24.0609 16.2948 23.832 16.4636 23.6632C16.6323 23.4944 16.8613 23.3996 17.1 23.3996H24.3C24.5386 23.3996 24.7676 23.4944 24.9363 23.6632C25.1051 23.832 25.2 24.0609 25.2 24.2996C25.2 24.5383 25.1051 24.7672 24.9363 24.936C24.7676 25.1048 24.5386 25.1996 24.3 25.1996H17.1C16.8613 25.1996 16.6323 25.1048 16.4636 24.936C16.2948 24.7672 16.2 24.5383 16.2 24.2996ZM12.6 18.8996C13.0773 18.8996 13.5352 18.71 13.8727 18.3724C14.2103 18.0348 14.4 17.577 14.4 17.0996C14.4 16.6222 14.2103 16.1644 13.8727 15.8268C13.5352 15.4893 13.0773 15.2996 12.6 15.2996C12.1226 15.2996 11.6647 15.4893 11.3272 15.8268C10.9896 16.1644 10.8 16.6222 10.8 17.0996C10.8 17.577 10.9896 18.0348 11.3272 18.3724C11.6647 18.71 12.1226 18.8996 12.6 18.8996ZM12.6 26.0996C13.0773 26.0996 13.5352 25.91 13.8727 25.5724C14.2103 25.2348 14.4 24.777 14.4 24.2996C14.4 23.8222 14.2103 23.3644 13.8727 23.0268C13.5352 22.6893 13.0773 22.4996 12.6 22.4996C12.1226 22.4996 11.6647 22.6893 11.3272 23.0268C10.9896 23.3644 10.8 23.8222 10.8 24.2996C10.8 24.777 10.9896 25.2348 11.3272 25.5724C11.6647 25.91 12.1226 26.0996 12.6 26.0996ZM32.139 26.7332C32.3023 26.5628 32.3922 26.335 32.3892 26.099C32.3862 25.8629 32.2906 25.6375 32.123 25.4713C31.9553 25.3051 31.7291 25.2114 31.493 25.2104C31.257 25.2094 31.03 25.3012 30.861 25.466L24.3036 32.09L21.3426 29.0696C21.2603 28.9833 21.1617 28.9141 21.0524 28.8662C20.9432 28.8183 20.8255 28.7926 20.7063 28.7906C20.587 28.7885 20.4686 28.8102 20.3578 28.8544C20.247 28.8985 20.1461 28.9643 20.0609 29.0478C19.9757 29.1313 19.908 29.2309 19.8617 29.3408C19.8153 29.4507 19.7913 29.5687 19.791 29.6879C19.7906 29.8072 19.814 29.9254 19.8597 30.0355C19.9055 30.1457 19.9726 30.2456 20.0574 30.3296L23.5296 33.872C23.6298 33.9743 23.7494 34.0556 23.8814 34.1112C24.0134 34.1669 24.1551 34.1957 24.2983 34.196C24.4415 34.1963 24.5834 34.1682 24.7156 34.1132C24.8478 34.0582 24.9678 33.9774 25.0686 33.8756L32.139 26.7332Z" fill="#373BF9"/>
</svg>
